<svg version="1.1" xmlns="http://www.w3.org/2000/svg" xmlns:xlink="http://www.w3.org/1999/xlink" width="507.50751" height="400.9009" viewBox="0,0,507.50751,400.9009"><defs><linearGradient x1="100.2416" y1="40.6964" x2="100.2416" y2="310.8464" gradientUnits="userSpaceOnUse" id="color-1"><stop offset="0" stop-color="#ffc9e4"/><stop offset="1" stop-color="#ff5caa"/></linearGradient><linearGradient x1="100.2416" y1="40.6964" x2="100.2416" y2="310.8464" gradientUnits="userSpaceOnUse" id="color-2"><stop offset="0" stop-color="#ffc7e1"/><stop offset="1" stop-color="#ff5cad"/></linearGradient></defs><g transform="translate(8.20657,19.82588)"><g data-paper-data="{&quot;isPaintingLayer&quot;:true}" fill-rule="nonzero" stroke-linecap="butt" stroke-linejoin="miter" stroke-miterlimit="10" stroke-dasharray="" stroke-dashoffset="0" style="mix-blend-mode: normal"><path d="M-8.20657,381.07502v-400.9009h507.50751v400.9009z" fill="#ffcbe3" stroke="none" stroke-width="0"/><path d="M319.4096,55.6778l24.3062,24.4839l-205.2284,203.7385l-24.3062,-24.4839z" fill="#ff3090" stroke="none" stroke-width="1.06679"/><path d="M360.7226,107.5628l9.2453,45.1266l-160.2805,159.117l-40.9533,-11.575z" fill="#ff3090" stroke="none" stroke-width="0.99169"/><path d="M284.1002,42.3206l33.9048,15.0958l-202.9809,201.5073l-15.7145,-33.154z" fill="#ff81be" stroke="none" stroke-width="1.0086"/><path d="M170.3845,300.2555l-34.2457,-14.7574l210.2416,-208.7153l15.4047,33.4616z" fill="#ff81be" stroke="none" stroke-width="1.02711"/><path d="M257.5345,310.6055l-47.9875,-1.6086l159.4799,-158.463l0.9986,46.9882z" fill="#ff81be" stroke="none" stroke-width="1.02711"/><path d="M366.4888,199.9692l-11.4979,62.987l-52.9763,42.0236l-39.6078,-0.6274z" fill="#ff3090" stroke="none" stroke-width="0.81224"/><path d="M108.3804,219.9686l-7.8854,-42.4765l139.5118,-135.9625l42.2399,3.9326z" fill="#ff3090" stroke="none" stroke-width="0.9051"/><path d="M192.0287,40.2402l43.5782,5.9859l-129.3694,128.5711l-5.3374,-42.6808z" fill="#ff81be" stroke="none" stroke-width="0.93019"/><path d="M103.4986,130.5342l13.4765,-44.0264l39.5339,-36.9923l32.9945,-6.4754z" fill="#ff3090" stroke="none" stroke-width="0.81224"/><path d="M352.9214,95.5928c-4.1659,-7.5747 -9.5405,-14.6537 -16.121,-21.2342c-7.907,-7.907 -16.5001,-14.0614 -25.7793,-18.4645c-5.9654,-2.8875 -12.215,-5.0422 -18.7486,-6.4626c-6.7707,-1.5155 -13.8483,-2.2725 -21.2341,-2.2725h-10.7237h-29.5432h-30.9635l-8.2381,0.3551c-22.2042,1.7513 -41.4031,10.6994 -57.595,26.8445c-15.0088,15.0088 -23.815,32.6211 -26.4185,52.8369c-0.5681,4.2142 -0.8522,8.5463 -0.8522,12.9962v26.6315v26.9866v17.6123c0,7.8588 0.8522,15.3639 2.5566,22.5125c1.7996,7.623 4.592,14.8668 8.3801,21.7313c4.2142,7.623 9.6583,14.7716 16.334,21.4473l2.9827,2.8407l4.9002,4.261c2.9827,2.4615 6.0833,4.7113 9.3033,6.7466c11.2207,7.0066 23.5777,11.2918 37.071,12.8542l6.7467,0.5681h0.6391l4.1901,0.071h71.2304l5.6103,-0.142c23.2937,-1.2314 43.3448,-10.2975 60.1517,-27.1996c4.5451,-4.5451 8.498,-9.3275 11.8599,-14.3455c10.6058,-15.8611 15.719,-32.739 15.3398,-50.6354v-0.7102v-71.2304l-0.2131,-6.6046v-0.4971c-0.473,-6.8646 -1.6092,-13.4223 -3.4088,-19.6718c-1.8465,-6.2027 -4.3321,-12.144 -7.4568,-17.8254M197.9615,40.6964h74.7813c26.9866,0 49.9962,9.5163 69.0288,28.549c19.0796,19.0795 28.62,42.1133 28.62,69.0999v74.7812c0,26.9866 -9.5404,49.9962 -28.62,69.0289c-19.0326,19.1278 -42.0422,28.691 -69.0288,28.691h-74.7813l-5.0422,-0.071c-24.8561,-1.1832 -46.2082,-10.7236 -64.0577,-28.62c-19.0795,-19.0327 -28.62,-42.0423 -28.62,-69.0289v-74.7812c0,-26.9866 9.5405,-50.0204 28.62,-69.0999c19.0795,-19.0327 42.1133,-28.549 69.0999,-28.549" fill="url(#color-1)" stroke="url(#color-2)" stroke-width="2.84069"/><text transform="translate(128.37025,347.34262) scale(0.74982,0.74982)" font-size="40" xml:space="preserve" fill="#000000" fill-rule="nonzero" stroke="none" stroke-width="1" stroke-linecap="butt" stroke-linejoin="miter" stroke-miterlimit="10" stroke-dasharray="" stroke-dashoffset="0" font-family="Serif" font-weight="normal" text-anchor="start" style="mix-blend-mode: normal"><tspan x="0" dy="0">Codin_Queen222</tspan></text></g></g></svg>