<svg version="1.1" xmlns="http://www.w3.org/2000/svg" xmlns:xlink="http://www.w3.org/1999/xlink" width="507.50751" height="400.9009" viewBox="0,0,507.50751,400.9009"><defs><linearGradient x1="228.2854" y1="120.6474" x2="243.4318" y2="224.5521" gradientUnits="userSpaceOnUse" id="color-1"><stop offset="0" stop-color="#71dbff"/><stop offset="1" stop-color="#a39dff"/></linearGradient><linearGradient x1="221.3297" y1="122.0901" x2="251.258" y2="222.7375" gradientUnits="userSpaceOnUse" id="color-2"><stop offset="0" stop-color="#ffe3e0"/><stop offset="1" stop-color="#ff613d"/></linearGradient><linearGradient x1="100.2416" y1="40.6964" x2="100.2416" y2="310.8464" gradientUnits="userSpaceOnUse" id="color-3"><stop offset="0" stop-color="#ffc9e4"/><stop offset="1" stop-color="#ff5caa"/></linearGradient><linearGradient x1="100.2416" y1="40.6964" x2="100.2416" y2="310.8464" gradientUnits="userSpaceOnUse" id="color-4"><stop offset="0" stop-color="#ffc7e1"/><stop offset="1" stop-color="#ff5cad"/></linearGradient></defs><g transform="translate(8.20657,19.82588)"><g data-paper-data="{&quot;isPaintingLayer&quot;:true}" fill-rule="nonzero" stroke-linejoin="miter" stroke-miterlimit="10" stroke-dasharray="" stroke-dashoffset="0" style="mix-blend-mode: normal"><path d="M-8.20656,381.07502v-400.9009h507.50751v400.9009z" fill="#ffcbe3" stroke="none" stroke-width="0" stroke-linecap="butt"/><g stroke="none" stroke-width="0.85634" stroke-linecap="round"><path d="M235.4401,169.7287l30.1203,-50.9313l45.0051,-10.1441l34.7061,22.7721l9.9024,40.6758l-21.4149,35.7001l-42.282,9.7471l-6.9403,-14.9052l43.7849,-10.3385l11.0747,-16.6935l-10.7933,-41.3371l-14.9344,-9.784l-43.838,9.974l-24.7672,39.9586l44.2119,27.204l2.2017,15.9217l-52.9804,-32.3019z" fill="url(#color-1)"/><path d="M239.2156,184.9981l-34.4968,51.5782l-4.6942,-15.3725l28.6831,-43.267l-39.2681,-25.8479l-43.97,9.3752l-9.4389,15.1548l7.5805,42.045l17.0654,10.4927l44.075,-9.0221l-0.0328,16.4418l-42.4626,8.927l-34.4365,-23.3929l-8.1111,-41.0705l21.9204,-35.2502l45.1005,-9.7114l48.7374,33.5544z" fill="url(#color-2)"/></g><g stroke-linecap="butt"><path d="M319.4096,55.6778l24.3062,24.4839l-205.2284,203.7385l-24.3062,-24.4839z" fill="#ff3090" stroke="none" stroke-width="1.06679"/><path d="M360.7226,107.5628l9.2453,45.1266l-160.2805,159.117l-40.9533,-11.575z" fill="#ff3090" stroke="none" stroke-width="0.99169"/><path d="M284.1002,42.3206l33.9048,15.0958l-202.9809,201.5073l-15.7145,-33.154z" fill="#ff81be" stroke="none" stroke-width="1.00861"/><path d="M170.3845,300.2555l-34.2457,-14.7574l210.2416,-208.7153l15.4047,33.4616z" fill="#ff81be" stroke="none" stroke-width="1.02711"/><path d="M257.5345,310.6055l-47.9875,-1.6086l159.4799,-158.463l0.9986,46.9882z" fill="#ff81be" stroke="none" stroke-width="1.02711"/><path d="M366.4888,199.9692l-11.4979,62.987l-52.9763,42.0236l-39.6078,-0.6274z" fill="#ff3090" stroke="none" stroke-width="0.81224"/><path d="M108.3804,219.9686l-7.8854,-42.4765l139.5118,-135.9625l42.2399,3.9326z" fill="#ff3090" stroke="none" stroke-width="0.9051"/><path d="M192.0287,40.2402l43.5782,5.9859l-129.3694,128.5711l-5.3374,-42.6808z" fill="#ff81be" stroke="none" stroke-width="0.93019"/><path d="M103.4986,130.5342l13.4765,-44.0264l39.5339,-36.9923l32.9945,-6.4754z" fill="#ff3090" stroke="none" stroke-width="0.81224"/><path d="M352.9214,95.5928c-4.1659,-7.5747 -9.5405,-14.6537 -16.121,-21.2342c-7.907,-7.907 -16.5001,-14.0614 -25.7793,-18.4645c-5.9654,-2.8875 -12.215,-5.0422 -18.7486,-6.4626c-6.7707,-1.5155 -13.8483,-2.2725 -21.2341,-2.2725h-10.7237h-29.5432h-30.9635l-8.2381,0.3551c-22.2042,1.7513 -41.4031,10.6994 -57.595,26.8445c-15.0088,15.0088 -23.815,32.6211 -26.4185,52.8369c-0.5681,4.2142 -0.8522,8.5463 -0.8522,12.9962v26.6315v26.9866v17.6123c0,7.8588 0.8522,15.3639 2.5566,22.5125c1.7996,7.623 4.592,14.8668 8.3801,21.7313c4.2142,7.623 9.6583,14.7716 16.334,21.4473l2.9827,2.8407l4.9002,4.261c2.9827,2.4615 6.0833,4.7113 9.3033,6.7466c11.2207,7.0066 23.5777,11.2918 37.071,12.8542l6.7467,0.5681h0.6391l4.1901,0.071h71.2304l5.6103,-0.142c23.2937,-1.2314 43.3448,-10.2975 60.1517,-27.1996c4.5451,-4.5451 8.498,-9.3275 11.8599,-14.3455c10.6058,-15.8611 15.719,-32.739 15.3398,-50.6354v-0.7102v-71.2304l-0.2131,-6.6046v-0.4971c-0.473,-6.8646 -1.6092,-13.4223 -3.4088,-19.6718c-1.8465,-6.2027 -4.3321,-12.144 -7.4568,-17.8254M197.9615,40.6964h74.7813c26.9866,0 49.9962,9.5163 69.0288,28.549c19.0796,19.0795 28.62,42.1133 28.62,69.0999v74.7812c0,26.9866 -9.5404,49.9962 -28.62,69.0289c-19.0326,19.1278 -42.0422,28.691 -69.0288,28.691h-74.7813l-5.0422,-0.071c-24.8561,-1.1832 -46.2082,-10.7236 -64.0577,-28.62c-19.0795,-19.0327 -28.62,-42.0423 -28.62,-69.0289v-74.7812c0,-26.9866 9.5405,-50.0204 28.62,-69.0999c19.0795,-19.0327 42.1133,-28.549 69.0999,-28.549" fill="url(#color-3)" stroke="url(#color-4)" stroke-width="2.8407"/></g><path d="M192.41821,205.51053l-55.23669,-48.7899l64.05865,-9.02012l19.27256,-63.20727l38.44175,53.73739l63.864,-11.06538l-37.02371,63.01936l20.4745,63.54385l-61.59338,-21.96391c0,0 -53.275,41.74221 -52.7079,39.80676c-0.56067,1.35012 0.45019,-66.06077 0.45019,-66.06077z" data-paper-data="{&quot;index&quot;:null}" fill="#d00069" stroke="#690034" stroke-width="1.28786" stroke-linecap="butt"/><path d="M216.35743,194.32276c0,0 -28.45998,-10.80461 -27.18964,-19.01964c1.24848,-8.2021 31.6557,-10.03384 31.6557,-10.03384c0,0 1.46951,-30.40976 9.6583,-31.74995c8.19862,-1.35261 19.33076,26.99348 19.33076,26.99348c0,0 29.36964,-7.98797 33.18142,-0.61477c3.79929,7.36252 -19.70112,26.72065 -19.70112,26.72065c0,0 16.66536,25.4676 10.83468,31.37082c-5.83112,5.90328 -31.49252,-10.48987 -31.49252,-10.48987c0,0 -19.07845,23.73696 -26.50663,20.01524c-7.40629,-3.72343 0.22906,-33.19213 0.22906,-33.19213z" data-paper-data="{&quot;index&quot;:null}" fill="#d00069" stroke="none" stroke-width="2.57572" stroke-linecap="butt"/><text transform="translate(128.37024,347.34261) scale(0.74982,0.74982)" font-size="40" xml:space="preserve" fill="#000000" fill-rule="nonzero" stroke="none" stroke-width="1" stroke-linecap="butt" stroke-linejoin="miter" stroke-miterlimit="10" stroke-dasharray="" stroke-dashoffset="0" font-family="Serif" font-weight="normal" text-anchor="start" style="mix-blend-mode: normal"><tspan x="0" dy="0">Codin_Queen222</tspan></text></g></g></svg>