<svg version="1.1" xmlns="http://www.w3.org/2000/svg" xmlns:xlink="http://www.w3.org/1999/xlink" width="507.50751" height="400.9009" viewBox="0,0,507.50751,400.9009"><g transform="translate(8.20657,19.82588)"><g data-paper-data="{&quot;isPaintingLayer&quot;:true}" fill-rule="nonzero" stroke-linecap="butt" stroke-linejoin="miter" stroke-miterlimit="10" stroke-dasharray="" stroke-dashoffset="0" style="mix-blend-mode: normal"><path d="M-8.20656,381.07502v-400.9009h507.50751v400.9009z" fill="#ffcbe3" stroke="none" stroke-width="0"/><path d="M203.81468,204.79143l-50.47585,-44.58471l58.53745,-8.24268l17.61146,-57.75945l35.12847,49.10578l58.35958,-10.11166l-33.83265,57.58774l18.70981,58.06702l-56.28466,-20.07085c0,0 -48.68324,38.14446 -48.16502,36.37583c-0.51235,1.23375 0.41139,-60.36701 0.41139,-60.36701z" data-paper-data="{&quot;index&quot;:null}" fill="#d00069" stroke="#690034" stroke-width="1.28786"/><path d="M225.69059,194.56793c0,0 -26.00702,-9.87336 -24.84617,-17.38034c1.14087,-7.49516 28.9273,-9.16903 28.9273,-9.16903c0,0 1.34285,-27.78875 8.82585,-29.01343c7.49198,-1.23603 17.66465,24.66692 17.66465,24.66692c0,0 26.83828,-7.29949 30.32152,-0.56178c3.47183,6.72795 -18.00309,24.4176 -18.00309,24.4176c0,0 15.22898,23.27255 9.90084,28.66698c-5.32854,5.39448 -28.77819,-9.58575 -28.77819,-9.58575c0,0 -17.43408,21.69108 -24.22203,18.29013c-6.76794,-3.40251 0.20932,-30.33131 0.20932,-30.33131z" data-paper-data="{&quot;index&quot;:null}" fill="#d00069" stroke="none" stroke-width="2.57572"/></g></g></svg>