<svg version="1.1" xmlns="http://www.w3.org/2000/svg" xmlns:xlink="http://www.w3.org/1999/xlink" width="24.22222" height="24.22222" viewBox="0,0,24.22222,24.22222"><g transform="translate(-227.94444,-167.97778)"><g data-paper-data="{&quot;isPaintingLayer&quot;:true}" fill-rule="nonzero" stroke="none" stroke-linecap="butt" stroke-linejoin="miter" stroke-miterlimit="10" stroke-dasharray="" stroke-dashoffset="0" style="mix-blend-mode: normal"><path d="M227.94444,192.2v-24.22222h24.22222v24.22222z" fill="#bbbbbb" stroke-width="0"/><path d="M230.32463,185.14209c0.602,-0.75251 1.35451,-0.1505 1.35451,-0.1505l0.86223,0.80337c0.36235,0.73854 0.8055,1.29772 1.30616,1.88388l0.00389,-0.00089c0.81691,-0.41688 1.32334,-1.90493 2.26513,-2.03745c-0.21778,-0.25048 -0.31203,-0.62238 -0.57718,-0.82641c-1.27347,-0.97995 -2.33094,-0.23445 -2.16057,-2.72072c0.04195,-0.61223 3.17111,-3.94433 3.72993,-4.03028c1.42398,-0.21902 1.93474,0.83498 2.5669,1.67903c0.35861,0.45742 0.54838,1.82778 0.98208,1.44083c0.3581,-0.31951 3.1652,-2.50902 3.086,-2.8408c-0.18796,-0.78731 -2.97063,-2.43807 -3.133,-2.89642c-0.19802,-0.55898 0.46316,-1.09712 0.77612,-1.60084c0.52486,-0.8448 3.14769,-3.86318 4.14546,-3.881c0.86506,-0.01545 3.43009,2.44322 4.05429,3.05282c0,0 0.68142,0.68142 0,1.36284c-0.68142,0.68142 -1.36284,0 -1.36284,0c-0.33882,-0.34979 -2.46839,-2.44296 -2.69145,-2.48832c-0.55055,-0.11196 -0.36532,1.09969 -0.74945,1.50968c-0.55699,0.59447 -1.24543,1.05089 -1.85083,1.59598c-0.10824,0.09746 -0.54919,0.00409 -0.42848,0.08559c0.81817,0.55242 3.0432,1.54217 3.1309,2.88564c0.16967,2.59903 -1.96677,2.68357 -3.42975,3.91219c-0.43157,0.36243 -0.63435,1.12824 -1.19366,1.19734c-1.30095,0.16073 -2.25151,-1.4087 -2.87263,-2.17296c-0.20726,-0.31192 -0.32781,-1.26085 -0.56505,-0.97108c-0.38494,0.47017 -2.0855,1.87305 -2.29305,2.47454c-0.18546,0.53747 1.00614,0.54181 1.45322,0.89307c0.34765,0.27314 2.00663,2.52818 1.90478,2.91363c-0.03423,0.12955 -3.47748,2.92152 -3.83062,3.13651l-0.49485,0.1832c-0.02434,0.02451 -0.05059,0.0489 -0.07887,0.07315c-0.73168,0.62715 -1.35883,-0.10453 -1.35883,-0.10453c-0.80649,-0.94091 -1.4942,-1.73628 -2.05761,-2.84629l-0.34236,-0.1603c0,0 -0.75251,-0.602 -0.1505,-1.35451z" fill="#000000" stroke-width="0.5"/></g></g></svg>