<svg version="1.1" xmlns="http://www.w3.org/2000/svg" xmlns:xlink="http://www.w3.org/1999/xlink" width="24.22222" height="24.22222" viewBox="0,0,24.22222,24.22222"><g transform="translate(-227.88889,-167.88889)"><g data-paper-data="{&quot;isPaintingLayer&quot;:true}" fill-rule="nonzero" stroke-linejoin="miter" stroke-miterlimit="10" stroke-dasharray="" stroke-dashoffset="0" style="mix-blend-mode: normal"><path d="M227.88889,192.11111v-24.22222h24.22222v24.22222z" fill="#bbbbbb" stroke="none" stroke-width="0" stroke-linecap="butt"/><g stroke="#000000" stroke-width="0.5"><path d="M232.50324,177.97165c2.14372,-2.16715 6.02143,-6.08724 7.24247,-7.32163c0.67119,-0.67852 3.0455,-0.71979 3.92856,0.17293c1.01768,1.02881 3.47355,3.51151 5.14754,5.2038c0.97907,0.98977 0.74233,2.66788 -0.06836,3.48743c-1.14754,1.16008 -4.36893,4.41668 -6.58406,6.65602c-0.37252,0.37659 -4.23172,0.24672 -4.76654,-0.29394c-1.87486,-1.89535 -4.24523,-4.29163 -5.08769,-5.14329c-0.60187,-0.60844 -0.68592,-1.87777 0.18808,-2.76132z" fill="none" stroke-linecap="butt"/><path d="M247.94351,189.83971h-17.68199" fill="none" stroke-linecap="round"/><path d="M237.355,173.06865c1.09767,-1.10967 2.05145,-2.07387 2.55443,-2.58235c0.67119,-0.67852 3.0455,-0.71979 3.92856,0.17293c1.01768,1.02881 3.47355,3.51151 5.14754,5.2038c0.97907,0.98977 0.74233,2.66788 -0.06836,3.48743c-0.5423,0.54823 -1.54775,1.56467 -2.69128,2.72069" fill="#000000" stroke-linecap="butt"/></g></g></g></svg>