<svg version="1.1" xmlns="http://www.w3.org/2000/svg" xmlns:xlink="http://www.w3.org/1999/xlink" width="24.22222" height="24.22222" viewBox="0,0,24.22222,24.22222"><g transform="translate(-227.94444,-167.97778)"><g data-paper-data="{&quot;isPaintingLayer&quot;:true}" fill-rule="nonzero" stroke="none" stroke-linecap="butt" stroke-linejoin="miter" stroke-miterlimit="10" stroke-dasharray="" stroke-dashoffset="0" style="mix-blend-mode: normal"><path d="M227.94444,192.2v-24.22222h24.22222v24.22222z" fill="#bbbbbb" stroke-width="0"/><path d="M231.66101,184.65919c0.5547,-0.83205 1.38675,-0.27735 1.38675,-0.27735l0.69446,0.5964c1.45043,2.66334 5.22404,1.60471 6.68861,-0.48805c0.31601,-3.5135 -2.89535,-6.08321 -2.04098,-9.6089c1.19917,-4.94859 7.86551,-4.23857 10.87901,-1.67666c0,0 0.75925,0.65079 0.10846,1.41005c-0.65079,0.75925 -1.41004,0.10846 -1.41004,0.10846c-1.04324,-0.90296 -1.61974,-1.27154 -3.05046,-1.38717c-0.7456,-0.06026 -2.08694,-0.2025 -2.819,-0.02384c-1.61656,0.39453 -1.95057,2.37176 -1.74035,3.75654c0.19514,1.28553 1.05839,1.99408 1.55536,3.12772c0.687,1.56717 0.62916,3.3526 0.39248,4.99119c-0.51567,0.80256 -0.78918,1.82309 -1.53904,2.41278c-1.12356,0.88356 -5.56049,1.21424 -6.90588,0.6624c-0.94868,-0.38912 -1.41657,-1.5162 -1.86647,-2.31324l-0.05554,0.09641c0,0 -0.83205,-0.5547 -0.27735,-1.38675z" fill="#000000" stroke-width="0.5"/></g></g></svg>