<svg version="1.1" xmlns="http://www.w3.org/2000/svg" xmlns:xlink="http://www.w3.org/1999/xlink" width="24.22222" height="24.22222" viewBox="0,0,24.22222,24.22222"><g transform="translate(-227.94444,-167.97778)"><g data-paper-data="{&quot;isPaintingLayer&quot;:true}" fill-rule="nonzero" stroke="none" stroke-linecap="butt" stroke-linejoin="miter" stroke-miterlimit="10" stroke-dasharray="" stroke-dashoffset="0" style="mix-blend-mode: normal"><path d="M227.94444,192.2v-24.22222h24.22222v24.22222z" fill="#bbbbbb" stroke-width="0"/><path d="M230.24305,189.08889c0,-1 1,-1 1,-1l0.13246,0.02986c1.07846,-0.23167 1.21604,-0.30627 1.43964,-1.40269c2.35512,-3.39482 3.92378,0.46785 6.63952,0.37357c0.5716,-0.01984 1.32382,0.24479 1.70633,-0.18044c0.22319,-0.24812 -0.30285,-0.59486 -0.44814,-0.8953c-0.31463,-0.65059 -0.36564,-2.1486 -1.24549,-2.33875c-0.95915,-0.20728 -1.00681,0.6042 -2.20104,-0.02515c-0.66422,-0.35004 -1.3926,-0.85082 -1.61802,-1.567c-0.38699,-1.22947 2.86009,-3.5935 1.47751,-3.43898c-1.62376,-0.90357 -4.75594,-4.09285 -1.59498,-5.69189c1.86925,-0.9456 4.59989,1.00801 6.46222,1.01177c0.11848,0.00024 1.17182,0.11205 1.35097,-0.13315c1.07473,-1.47095 -0.78991,-3.66458 2.40966,-3.74179c1.62214,-0.03914 2.90697,1.15044 4.02287,2.12237c0,0 0.75258,0.6585 0.09407,1.41108c-0.6585,0.75258 -1.41108,0.09407 -1.41108,0.09407c-0.16311,-0.14346 -2.63029,-2.31176 -3.00939,-1.67047c-1.02712,1.7375 0.66492,3.02466 -2.24952,3.89611c-2.42647,0.72555 -4.43415,-1.25 -6.74537,-1.21645c-0.3687,0.00535 -0.17139,0.76165 -0.03834,1.10555c0.11068,0.28608 1.33926,0.89487 1.44336,0.95256c1.89486,0.75305 2.23593,2.1434 0.91487,3.92827c-0.2934,0.39641 -1.41491,0.4452 -1.18736,0.88275c0.22276,0.42833 2.17556,0.06709 2.43093,0.15786c1.62926,0.57911 3.91143,4.52875 2.80637,6.26595c-0.76776,1.20695 -4.60785,1.5898 -5.87027,0.98093c-0.02946,-0.01421 -2.15266,-2.8023 -2.28389,-1.5378c-0.46555,1.64012 -1.18965,2.15539 -2.81036,2.59731l-0.61754,0.02986c0,0 -1,0 -1,-1z" fill="#000000" stroke-width="0.5"/></g></g></svg>