<svg version="1.1" xmlns="http://www.w3.org/2000/svg" xmlns:xlink="http://www.w3.org/1999/xlink" width="24.22222" height="24.22222" viewBox="0,0,24.22222,24.22222"><g transform="translate(-227.94446,-167.97778)"><g data-paper-data="{&quot;isPaintingLayer&quot;:true}" fill-rule="nonzero" stroke="none" stroke-linecap="butt" stroke-linejoin="miter" stroke-miterlimit="10" stroke-dasharray="" stroke-dashoffset="0" style="mix-blend-mode: normal"><path d="M227.94447,192.2v-24.22222h24.22222v24.22222z" fill="#bbbbbb" stroke-width="0"/><path d="M242.81181,180.06416c-0.98639,-0.1644 -0.82199,-1.15079 -0.82199,-1.15079l0.14125,-0.34307c-0.64296,-2.81968 -2.89111,0.41595 -2.56861,2.10678c0.10536,0.5524 1.44874,1.46247 1.6054,1.57673c0.35789,0.26101 1.01211,0.62803 1.48273,0.57682c3.96138,-0.43108 4.43739,-5.51045 3.88569,-8.4115c-0.73284,-1.7484 -7.85342,-1.10177 -9.39592,-0.12416c-4.85452,3.07673 -3.7354,8.31494 -2.33337,12.86371c0,0 0.29409,0.95578 -0.66169,1.24986c-0.95578,0.29409 -1.24986,-0.66169 -1.24986,-0.66169c-1.07213,-3.49073 -2.31054,-6.89401 -0.83193,-10.57769c1.59704,-3.97873 5.80815,-5.30665 9.62707,-5.46576c3.05249,-0.12718 4.99051,-0.83074 6.72558,2.033c0.88003,4.2474 -1.06931,12.85333 -7.29059,10.77787c-0.75903,-0.25322 -2.25611,-1.46108 -2.64994,-1.90074c-3.77306,-4.21216 3.95844,-10.69803 5.59574,-4.5283l-0.10875,1.15693c0,0 -0.1644,0.98639 -1.15079,0.82199z" fill="#000000" stroke-width="0.5"/></g></g></svg>